<svg width="17" height="17" fill="none" xmlns="http://www.w3.org/2000/svg"><path d="M4.742 13.641l.573.335c.967.564 2.066.86 3.185.857a6.333 6.333 0 10-5.475-3.147l.334.573-.517 1.9 1.9-.518zM.586 16.417l1.07-3.933a7.917 7.917 0 112.861 2.86l-3.93 1.073zM5.643 4.785a2.68 2.68 0 01.319-.003c.043.003.085.008.128.013.126.014.265.091.311.197.236.535.466 1.074.687 1.615.05.12.02.275-.073.425a3.56 3.56 0 01-.208.295 7.67 7.67 0 01-.282.325s-.079.094-.049.21a.7.7 0 00.081.162l.047.075c.203.338.475.681.807 1.004.095.092.188.186.288.274.37.327.79.594 1.243.792l.004.001c.067.03.101.046.2.088.048.02.099.038.15.052a.277.277 0 00.291-.103c.573-.694.625-.74.63-.74v.002a.38.38 0 01.3-.1.41.41 0 01.14.031c.42.192 1.108.493 1.108.493l.46.206c.078.037.149.125.151.21.003.053.008.139-.01.295a2.205 2.205 0 01-.15.58.915.915 0 01-.165.24c-.08.084-.168.16-.262.228a2.884 2.884 0 01-.099.07c-.098.063-.2.122-.303.175-.204.108-.429.17-.66.182-.146.008-.292.02-.44.011l-.45-.069a7.479 7.479 0 01-3.04-1.62c-.178-.157-.343-.326-.513-.495-.704-.7-1.236-1.457-1.56-2.17a2.747 2.747 0 01-.262-1.12 2.16 2.16 0 01.447-1.33c.058-.075.112-.152.207-.242a.993.993 0 01.232-.18.76.76 0 01.294-.08v.002z" fill="#00A0E3"/></svg>