<svg width="15" height="15" fill="none" xmlns="http://www.w3.org/2000/svg"><path d="M5.415 6.457a8.357 8.357 0 003.128 3.128l.7-.98a.792.792 0 011.025-.234c1.12.612 2.356.98 3.628 1.08a.792.792 0 01.729.789v3.532a.792.792 0 01-.71.788c-.42.044-.843.065-1.27.065-6.776 0-12.27-5.494-12.27-12.27 0-.427.021-.85.065-1.27a.792.792 0 01.788-.71H4.76a.792.792 0 01.79.73 9.042 9.042 0 001.08 3.627.792.792 0 01-.235 1.025l-.98.7zm-1.997-.52l1.504-1.075a10.61 10.61 0 01-.868-2.904H1.966a10.97 10.97 0 00-.007.396c0 5.903 4.784 10.688 10.687 10.688.132 0 .264-.003.396-.008v-2.088a10.62 10.62 0 01-2.904-.868l-1.074 1.504a9.839 9.839 0 01-1.258-.594l-.046-.026A9.94 9.94 0 014.038 7.24l-.026-.046a9.848 9.848 0 01-.594-1.258z" fill="#00A0E3"/></svg>