<svg width="34" height="35" fill="none" xmlns="http://www.w3.org/2000/svg"><path d="M23 33.2H5.6V14.4l10.24-8.8L26 14.168V17.8a.6.6 0 001.2 0v-2.624l3.412 2.88a.6.6 0 00.776-.916L16.224 4.34a.6.6 0 00-.78 0L.608 17.1a.607.607 0 00.8.912L4.4 15.424V33.8a.6.6 0 00.6.6h18a.6.6 0 000-1.2z" fill="#00A0E3"/><path d="M32.8 26.532a5.402 5.402 0 01-3.936-1.648 5.86 5.86 0 01-1.664-3.736v-.236a.577.577 0 00-.04-.196.608.608 0 00-.596-.516.6.6 0 00-.584.6v.352c-.104 2.932-2.672 5.312-5.844 5.344H20a.6.6 0 100 1.2 5.932 5.932 0 015.872 5.792.8.8 0 00.672.712.6.6 0 00.6-.6c-.032-3.2 2.456-5.832 5.504-5.868h.152a.6.6 0 100-1.2zM26.492 30.8a7.2 7.2 0 00-3.6-3.636 6.98 6.98 0 003.704-3.48A6.994 6.994 0 0028 25.724a6.742 6.742 0 002 1.4 6.928 6.928 0 00-3.508 3.676zM3 5.344h.04a3.28 3.28 0 013.2 3.2.712.712 0 00.648.656.6.6 0 00.592-.608 3.14 3.14 0 013.024-3.232h.096a.6.6 0 000-1.2 2.916 2.916 0 01-2.16-.904A3.236 3.236 0 017.52 1.2v-.14a.597.597 0 00-.028-.168.592.592 0 00-.821-.443.6.6 0 00-.363.559v.208A3.172 3.172 0 013.08 4.14h-.096a.6.6 0 000 1.2L3 5.344zm3.916-2.12a4.4 4.4 0 00.66.872c.246.253.523.475.824.66A4.36 4.36 0 006.848 6.4a4.568 4.568 0 00-.748-.964 4.493 4.493 0 00-.836-.636 4.4 4.4 0 001.652-1.576zM13 16a.6.6 0 00-.6.6V23a.6.6 0 00.6.6h6.4a.6.6 0 00.6-.6v-6.4a.6.6 0 00-.6-.6H13zm5.8 6.4h-5.2v-5.2h5.2v5.2z" fill="#00A0E3"/></svg>