<svg width="31" height="32" fill="none" xmlns="http://www.w3.org/2000/svg"><path d="M29.936 27.196L18.5 15.348l6.996-6.996 1.272 1.272a.6.6 0 00.432.176h.068a.6.6 0 00.44-.28l2.608-4.172a.6.6 0 00-.092-.748L28.4 2.776a.6.6 0 00-.744-.084L23.484 5.3a.6.6 0 00-.108.932l1.272 1.272-6.98 6.98-5.328-5.516A6.132 6.132 0 005.1.6a.6.6 0 00-.272.996L7.324 4.2l-.652 2.296-2.304.58-2.492-2.58a.6.6 0 00-1.004.24 6.16 6.16 0 001.452 6.084 6.096 6.096 0 006.636 1.44l5.176 5.356-3.2 3.2-.856-.856a.6.6 0 00-.848 0L.976 28.2a.6.6 0 000 .848l2.56 2.56a.6.6 0 00.848 0l8.24-8.208a.6.6 0 000-.848l-.856-.872 3.2-3.2 11.6 12a2.336 2.336 0 001.656.72h.04a2.336 2.336 0 001.64-.668 2.368 2.368 0 00.032-3.336zM27.888 3.96l1.152 1.152-1.956 3.128-2.324-2.324 3.128-1.956zM3.96 30.36l-1.712-1.72 7.392-7.392 1.712 1.712-7.392 7.4zm25.088-.68a1.16 1.16 0 01-.82.328 1.144 1.144 0 01-.8-.352L9.532 11.12A.6.6 0 008.84 11 4.9 4.9 0 013.2 9.98a4.956 4.956 0 01-1.372-3.824l1.932 2a.6.6 0 00.58.164l2.976-.748a.6.6 0 00.432-.4l.84-2.96a.6.6 0 00-.144-.58l-1.936-2a4.936 4.936 0 014.6 7.2.6.6 0 00.092.672l17.872 18.524a1.168 1.168 0 01-.024 1.644v.008z" fill="#00A0E3"/></svg>