<svg width="33" height="29" fill="none" xmlns="http://www.w3.org/2000/svg"><path d="M21.8 18.6a.6.6 0 00.848 0l7.952-8.036a.6.6 0 00-.852-.844L21.8 17.756a.6.6 0 000 .844zm-.232-4.996a.6.6 0 00.848 0l3.6-3.6a.6.6 0 00-.852-.844l-3.6 3.6a.6.6 0 00.004.844z" fill="#00A0E3"/><path d="M32.4.6H5.6a.6.6 0 00-.6.6v6.16C4.348 8.344.788 13.8.8 16.32c0 2.588 1.844 4.72 4.2 5.036V28.4a.6.6 0 00.6.6h26.8a.6.6 0 00.6-.6V1.2a.6.6 0 00-.6-.6zM2 16.316c0-1.656 2.248-5.548 3.568-7.624 1.336 2.064 3.628 5.936 3.632 7.6 0 2.152-1.6 3.908-3.6 3.916C3.624 20.2 2.008 18.46 2 16.316zm4.2 5.04c2.372-.316 4.212-2.476 4.2-5.08 0-2.4-3.372-7.572-4.2-8.8V1.8h12v26h-12v-6.444zM31.8 27.8H19.4v-26h12.4v26z" fill="#00A0E3"/></svg>