<svg width="37" height="35" fill="none" xmlns="http://www.w3.org/2000/svg"><path d="M5.8 6.8a5.6 5.6 0 100 11.2 5.6 5.6 0 000-11.2zm0 10a4.4 4.4 0 110-8.801 4.4 4.4 0 010 8.801zm18.8-3.6a3.2 3.2 0 10-6.4 0 3.2 3.2 0 006.4 0zm-5.2 0a2 2 0 114 0 2 2 0 01-4 0zm-4.4 10a4 4 0 100 8 4 4 0 000-8zm0 6.8a2.8 2.8 0 110-5.6 2.8 2.8 0 010 5.6zm-6.6-4H2.6v-5a.6.6 0 00-1.2 0v5.6a.6.6 0 00.6.6h5.8v7a.6.6 0 001.2 0v-7.6a.6.6 0 00-.6-.6z" fill="#00A0E3"/><path d="M33.284 10.6a4.028 4.028 0 00-2.684 1V4.8A4.856 4.856 0 0025.72 0H12.676A4.856 4.856 0 007.8 4.82a.6.6 0 001.2 0 3.656 3.656 0 013.676-3.62H25.72a3.656 3.656 0 013.68 3.624V18.8H11.2a.6.6 0 100 1.2h18.2v5.8h-7.8a.6.6 0 100 1.2h7.8v6.8a.6.6 0 001.2 0V27h5.8a.6.6 0 00.6-.6V14.32a3.724 3.724 0 00-3.716-3.72zM35.8 25.8h-5.2V14.2c0-1.324 1.2-2.4 2.684-2.4a2.52 2.52 0 012.516 2.52V25.8z" fill="#00A0E3"/></svg>