<svg width="38" height="32" fill="none" xmlns="http://www.w3.org/2000/svg"><path d="M23.204 13.712a.605.605 0 101.2-.156A9.44 9.44 0 005.6 14.8a.6.6 0 001.2 0 8.24 8.24 0 0116.4-1.088h.004zm-5.952 9.428a8.288 8.288 0 01-2.06.26 8.167 8.167 0 01-6.888-3.728.6.6 0 10-1.008.652 9.368 9.368 0 007.896 4.276c.796 0 1.589-.099 2.36-.296a.6.6 0 10-.3-1.164z" fill="#00A0E3"/><path d="M35.68 19.2H33.8v-2.6a.6.6 0 00-.6-.6h-12a.6.6 0 00-.6.6V28c-1.622.66-3.357 1-5.108 1a13.8 13.8 0 110-27.6 13.552 13.552 0 019.68 4.04.599.599 0 00.99-.649.6.6 0 00-.138-.195 14.744 14.744 0 00-10.532-4.4 15 15 0 100 30 14.726 14.726 0 005.108-.904V31.4a.6.6 0 00.6.6h12a.6.6 0 00.6-.6v-4.6h1.88a1.729 1.729 0 001.72-1.736v-4.128a1.729 1.729 0 00-1.72-1.736zM32.6 30.8H21.8V17.2h10.8v13.6zm3.6-5.736a.529.529 0 01-.52.536H33.8v-5.2h1.88a.527.527 0 01.52.536v4.128z" fill="#00A0E3"/><path d="M25.116 8.124H25a.6.6 0 100 1.2h.048a4.3 4.3 0 014.208 4.192.744.744 0 00.652.684.6.6 0 00.6-.6 4.124 4.124 0 013.976-4.244h.116a.6.6 0 000-1.2 3.912 3.912 0 01-2.844-1.2 4.248 4.248 0 01-1.2-2.7V4.08a.6.6 0 00-.032-.18.6.6 0 00-.588-.5.6.6 0 00-.6.6v.264C29.272 6.4 27.4 8.1 25.116 8.124zm4.836-1.628c.248.48.566.919.944 1.304a5.23 5.23 0 001.264.948 5.343 5.343 0 00-2.292 2.4 5.515 5.515 0 00-2.336-2.376 5.388 5.388 0 002.42-2.276zM17.4 15.756a3.143 3.143 0 01-2.304-.956 3.44 3.44 0 01-.972-2.176v-.148a.578.578 0 00-.028-.168.6.6 0 00-.588-.5.6.6 0 00-.596.592v.22a3.368 3.368 0 01-3.432 3.112H9.4a.6.6 0 100 1.2h.04a3.484 3.484 0 013.404 3.392.72.72 0 00.644.668.6.6 0 00.604-.592 3.337 3.337 0 013.2-3.436h.108a.6.6 0 100-1.2v-.008zm-3.948 2.372a4.772 4.772 0 00-.8-1.056 4.696 4.696 0 00-.932-.672 4.596 4.596 0 001.804-1.7 4.6 4.6 0 00.716.956c.274.278.583.518.92.716a4.561 4.561 0 00-1.708 1.76v-.004z" fill="#00A0E3"/></svg>