<svg width="35" height="35" fill="none" xmlns="http://www.w3.org/2000/svg"><path d="M24.8 5.94a3.49 3.49 0 012.4.992 3.395 3.395 0 011.044 2.4.72.72 0 00.644.668.6.6 0 00.604-.6 3.337 3.337 0 013.2-3.436h.108a.6.6 0 100-1.2h-.04a3.152 3.152 0 01-2.264-.964 3.44 3.44 0 01-.972-2.18v-.148a.591.591 0 00-.028-.172.6.6 0 00-.584-.5.6.6 0 00-.6.6v.22a3.368 3.368 0 01-3.432 3.112h-.08a.6.6 0 00-.417 1.027c.11.112.26.177.417.181zm4.124-2.26a4.6 4.6 0 00.716.956c.274.278.584.518.92.716a4.56 4.56 0 00-1.708 1.78 4.774 4.774 0 00-.8-1.056 4.67 4.67 0 00-.932-.676 4.596 4.596 0 001.804-1.72zm-9.56 19.72a6.8 6.8 0 117.036-6.564.6.6 0 00.58.62.592.592 0 00.62-.576 8 8 0 10-8.276 7.72h.02a.6.6 0 10.02-1.2zM7.6 9.4a4 4 0 100-8 4 4 0 000 8zm0-6.8a2.8 2.8 0 110 5.6 2.8 2.8 0 010-5.6z" fill="#00A0E3"/><path d="M28.032 19a6.604 6.604 0 00-.46 13.2h.232a6.601 6.601 0 00.228-13.2zm3.452 10.544a5.4 5.4 0 11-3.688-9.344H28a5.4 5.4 0 013.496 9.348l-.012-.004zM5.2 15.4a5.2 5.2 0 100 10.4 5.2 5.2 0 000-10.4zm0 9.2a4 4 0 110-8 4 4 0 010 8zm11.4 5.368h-.032a2.216 2.216 0 01-1.556-.644 2.425 2.425 0 01-.716-1.564v-.108a.68.68 0 00-.612-.652.6.6 0 00-.592.604v.16c-.048 1.336-1.276 2.176-2.424 2.188h-.076a.6.6 0 00-.412 1.031.596.596 0 00.428.169 2.368 2.368 0 011.688.704 2.4 2.4 0 01.74 1.692.688.688 0 00.632.652.6.6 0 00.592-.604 2.352 2.352 0 012.264-2.424h.076a.6.6 0 100-1.2v-.004zm-2.964 1.636a3.757 3.757 0 00-.5-.604 3.707 3.707 0 00-.504-.4 3.6 3.6 0 001.06-.992c.139.214.3.412.48.592.144.147.3.28.468.4a3.57 3.57 0 00-1.004 1.008v-.004zM19.82 11.4c-2.676-.096-4.92 2.14-5.02 4.976a.602.602 0 00.58.624h.02a.6.6 0 00.6-.58c.076-2.176 1.772-3.868 3.78-3.82a.59.59 0 00.62-.576.6.6 0 00-.58-.624z" fill="#00A0E3"/><path d="M27.62 21.2a3.804 3.804 0 00-3.82 3.776.6.6 0 00.58.62h.02a.6.6 0 00.6-.58 2.62 2.62 0 012.58-2.62.589.589 0 00.62-.58.6.6 0 00-.58-.616zM4.6 17.6c-1.432 0-2.6 1.344-2.6 3a.6.6 0 001.2 0c0-.992.628-1.8 1.4-1.8a.6.6 0 100-1.2z" fill="#00A0E3"/></svg>