<svg width="15" height="15" fill="none" xmlns="http://www.w3.org/2000/svg"><path d="M9.083 13.042h3.959V1.958H1.958v11.084H7.5V9.083H5.917V7.5H7.5V6.19c0-1.058.11-1.442.317-1.829a2.15 2.15 0 01.899-.898c.302-.163.678-.26 1.336-.302.26-.017.597.004 1.011.063v1.504h-.396c-.726 0-1.026.034-1.205.13a.575.575 0 00-.249.249c-.095.179-.13.356-.13 1.083V7.5h1.98l-.396 1.583H9.083v3.959zM1.167.375h12.666a.792.792 0 01.792.792v12.666a.791.791 0 01-.792.792H1.167a.792.792 0 01-.792-.792V1.167a.792.792 0 01.792-.792z" fill="#333"/></svg>