<svg width="17" height="17" fill="none" xmlns="http://www.w3.org/2000/svg"><path d="M4.742 13.641l.573.335c.967.564 2.066.86 3.185.857A6.333 6.333 0 102.167 8.5c0 1.137.298 2.227.858 3.186l.334.573-.517 1.9 1.9-.518zM.586 16.417l1.07-3.933a7.917 7.917 0 112.861 2.86l-3.93 1.073zM5.643 4.786a2.612 2.612 0 01.447.009c.126.014.265.091.311.197.236.535.466 1.075.687 1.615.05.12.02.275-.073.425a3.56 3.56 0 01-.208.295c-.09.115-.282.325-.282.325s-.079.094-.049.21a.7.7 0 00.081.162l.047.076c.203.338.475.68.807 1.003.095.092.188.186.288.274.37.327.79.594 1.243.792l.004.002.2.087c.048.02.099.039.15.052a.277.277 0 00.29-.103c.574-.694.626-.74.631-.74v.002a.382.382 0 01.3-.1.41.41 0 01.14.031c.42.193 1.108.493 1.108.493l.46.206c.078.037.149.125.15.21a1.39 1.39 0 01-.01.295 2.2 2.2 0 01-.148.58.915.915 0 01-.166.24c-.08.084-.168.16-.262.228a2.881 2.881 0 01-.099.071c-.098.063-.2.12-.303.174-.204.108-.429.17-.66.182-.146.008-.292.02-.44.011l-.45-.069a7.48 7.48 0 01-3.04-1.62c-.178-.157-.344-.326-.513-.495-.705-.7-1.237-1.457-1.56-2.17a2.747 2.747 0 01-.262-1.12 2.16 2.16 0 01.447-1.33c.058-.074.112-.152.207-.241.1-.095.163-.146.232-.181a.76.76 0 01.294-.08v.002z" fill="#333"/></svg>