<svg width="28" height="34" fill="none" xmlns="http://www.w3.org/2000/svg"><path d="M21.954 5.17a3.665 3.665 0 00-2.758-.614 3.664 3.664 0 00-2.383 1.516 3.695 3.695 0 00.902 5.14c.643.45 1.382.666 2.114.666a3.69 3.69 0 002.125-6.708zm-.078 4.453a2.5 2.5 0 01-3.475.61 2.497 2.497 0 011.439-4.538c.508 0 1.003.155 1.427.453a2.48 2.48 0 011.024 1.611 2.477 2.477 0 01-.415 1.864z" fill="#333"/><path d="M24.352 1.748a8.045 8.045 0 00-6.05-1.345 8.044 8.044 0 00-5.23 3.326 8.093 8.093 0 00.174 9.54l-4.894 6.979-3.178-2.229a.596.596 0 00-.833.147l-1.383 1.976a.598.598 0 00.146.832l3.177 2.229-.717 1.021-3.177-2.228a.598.598 0 00-.833.146L.167 24.118a.599.599 0 00.146.833l3.179 2.227-1.659 2.368a2.804 2.804 0 00-.468 2.079 2.36 2.36 0 00.956 1.545 2.29 2.29 0 001.325.411c.2 0 .403-.024.607-.073a2.826 2.826 0 001.637-1.113l11.416-16.278a8.092 8.092 0 009.026-3.089c2.563-3.656 1.675-8.716-1.98-11.28zm1.001 10.593a6.895 6.895 0 01-8.086 2.498.596.596 0 00-.771.352L4.912 31.708a1.617 1.617 0 01-.935.637c-.36.085-.704.03-.97-.156a1.17 1.17 0 01-.464-.77c-.071-.41.027-.841.27-1.187l2.001-2.858a.598.598 0 00-.146-.833L1.49 24.314l.7-.997 3.177 2.23A.601.601 0 006.2 25.4l1.403-2a.597.597 0 00-.146-.833L4.28 20.338l.698-.996 3.178 2.228c.27.19.642.125.833-.146l5.412-7.718.006-.006a.598.598 0 00.052-.831 6.898 6.898 0 01-.407-8.453 6.854 6.854 0 014.457-2.835 6.861 6.861 0 015.157 1.147 6.91 6.91 0 011.687 9.613z" fill="#333"/></svg>