<svg width="17" height="16" fill="none" xmlns="http://www.w3.org/2000/svg"><path d="M1.426 4.445A7.914 7.914 0 018.501.083c2.133 0 3.926.784 5.296 2.063l-2.27 2.27c-.82-.784-1.864-1.184-3.026-1.184-2.063 0-3.808 1.393-4.43 3.264A4.755 4.755 0 003.823 8c0 .523.09 1.03.248 1.504.623 1.872 2.367 3.264 4.43 3.264 1.064 0 1.97-.28 2.68-.756a3.64 3.64 0 001.58-2.389h-4.26V6.561h7.456c.093.518.144 1.057.144 1.619 0 2.411-.863 4.441-2.361 5.819-1.31 1.21-3.102 1.918-5.24 1.918A7.914 7.914 0 011.427 4.445z" fill="#fff"/></svg>