<svg width="26" height="26" fill="none" xmlns="http://www.w3.org/2000/svg"><path d="M.505 25.5l1.69-6.21A12.442 12.442 0 01.5 13C.5 6.096 6.096.5 13 .5S25.5 6.096 25.5 13 19.904 25.5 13 25.5a12.442 12.442 0 01-6.287-1.694L.505 25.5zM8.489 7.135c-.162.01-.32.053-.464.125-.136.077-.26.173-.367.285-.15.141-.235.264-.327.383a3.411 3.411 0 00-.706 2.097c.003.612.163 1.209.413 1.766.51 1.128 1.352 2.322 2.463 3.428.268.266.529.534.81.782a11.81 11.81 0 004.8 2.558l.711.108c.232.013.463-.005.695-.016.365-.018.72-.117 1.042-.288a5.87 5.87 0 00.479-.276s.053-.035.156-.112c.169-.125.272-.214.412-.36.104-.107.194-.234.263-.377.097-.204.195-.593.235-.917.03-.247.021-.382.017-.466-.005-.134-.116-.273-.237-.331l-.728-.326s-1.087-.474-1.751-.777a.621.621 0 00-.221-.051.602.602 0 00-.473.159v-.003c-.006 0-.09.072-.994 1.167a.437.437 0 01-.46.162 1.767 1.767 0 01-.238-.082c-.155-.066-.209-.09-.315-.137l-.007-.002a7.517 7.517 0 01-1.962-1.25c-.157-.138-.304-.288-.454-.433a7.87 7.87 0 01-1.275-1.585l-.073-.118a1.155 1.155 0 01-.128-.257c-.047-.184.076-.331.076-.331s.304-.332.445-.512a5.48 5.48 0 00.329-.467c.148-.237.194-.481.116-.67-.35-.855-.712-1.706-1.085-2.551-.073-.167-.292-.287-.491-.311a4.601 4.601 0 00-.202-.02 4.231 4.231 0 00-.504.005v.001z" fill="#00A0E3"/></svg>