<svg width="49" height="50" fill="none" xmlns="http://www.w3.org/2000/svg"><path d="M2.66 13.775A24.99 24.99 0 0125 0c6.738 0 12.398 2.475 16.725 6.512l-7.168 7.17c-2.592-2.477-5.887-3.74-9.557-3.74-6.512 0-12.025 4.4-13.988 10.308-.5 1.5-.785 3.1-.785 4.75s.285 3.25.785 4.75C12.977 35.66 18.488 40.057 25 40.057c3.363 0 6.225-.887 8.465-2.387a11.5 11.5 0 004.99-7.545H25v-9.67h23.545c.295 1.635.455 3.34.455 5.113 0 7.614-2.725 14.024-7.455 18.375C37.41 47.763 31.75 50 25 50A24.99 24.99 0 010 25c0-4.035.965-7.85 2.66-11.225z" fill="#00A0E3"/></svg>